<mxfile host="65bd71144e">
    <diagram id="7XpcRW93-ww6eZDl0q3B" name="Page-1">
        <mxGraphModel dx="6607" dy="923" grid="1" gridSize="10" guides="1" tooltips="1" connect="1" arrows="1" fold="1" page="1" pageScale="1" pageWidth="850" pageHeight="1100" math="0" shadow="0">
            <root>
                <mxCell id="0"/>
                <mxCell id="1" parent="0"/>
                <mxCell id="3" value="GameEnv.js&lt;br&gt;&lt;b style=&quot;background-color: initial;&quot;&gt;&lt;font color=&quot;#cc0000&quot;&gt;Static Create&lt;/font&gt;&lt;/b&gt;&lt;span style=&quot;background-color: initial;&quot;&gt;:&lt;br&gt;&lt;/span&gt;&lt;ul&gt;&lt;li&gt;&lt;span style=&quot;background-color: initial;&quot;&gt;This Env.js file takes in all these attrcibutes that are then inherited by the level child file classes&amp;nbsp;&lt;/span&gt;&lt;/li&gt;&lt;li&gt;&lt;span style=&quot;background-color: initial;&quot;&gt;this.innerWidth&lt;/span&gt;&lt;/li&gt;&lt;li&gt;&lt;span style=&quot;background-color: initial;&quot;&gt;this.innerHeight&lt;/span&gt;&lt;/li&gt;&lt;li&gt;&lt;span style=&quot;background-color: initial;&quot;&gt;this.setCanvas()&lt;/span&gt;&lt;/li&gt;&lt;li&gt;&lt;span style=&quot;background-color: initial;&quot;&gt;this.setTop()&lt;/span&gt;&lt;/li&gt;&lt;li&gt;&lt;span style=&quot;background-color: initial;&quot;&gt;this.setBottom()&lt;/span&gt;&lt;/li&gt;&lt;li&gt;&lt;span style=&quot;background-color: initial;&quot;&gt;this.size&lt;/span&gt;&lt;/li&gt;&lt;/ul&gt;" style="rounded=0;whiteSpace=wrap;html=1;fontFamily=Times New Roman;fontSize=61;fillColor=none;" parent="1" vertex="1">
                    <mxGeometry x="-2690" y="430" width="570" height="720" as="geometry"/>
                </mxCell>
                <mxCell id="4" value="&lt;span style=&quot;background-color: initial;&quot;&gt;&lt;font style=&quot;&quot;&gt;GameControl.js&lt;br&gt;&lt;/font&gt;&lt;/span&gt;&lt;span style=&quot;background-color: initial;&quot;&gt;&lt;font color=&quot;#cc0000&quot;&gt;&lt;b&gt;Main Logi c Storage&lt;br&gt;&lt;/b&gt;&lt;/font&gt;&lt;/span&gt;&lt;span style=&quot;background-color: initial;&quot;&gt;Impor GameLevel&lt;/span&gt;&lt;span style=&quot;background-color: initial;&quot;&gt;&lt;font color=&quot;#cc0000&quot;&gt;&lt;b&gt;&lt;br&gt;&lt;/b&gt;&lt;/font&gt;&lt;/span&gt;&lt;ul&gt;&lt;li&gt;&lt;span style=&quot;background-color: initial;&quot;&gt;Create Level &lt;/span&gt;.&lt;/li&gt;&lt;li&gt;Stores all levels in a list&lt;/li&gt;&lt;li&gt;Added the new levels in list that contained all of the levels in the game&amp;nbsp;&lt;/li&gt;&lt;/ul&gt;" style="rounded=0;whiteSpace=wrap;html=1;fontFamily=Times New Roman;fontSize=61;fillColor=none;" parent="1" vertex="1">
                    <mxGeometry x="-1940" y="510" width="570" height="720" as="geometry"/>
                </mxCell>
                <mxCell id="5" value="GameObject.js&lt;br&gt;&lt;span style=&quot;background-color: initial;&quot;&gt;Contains the importing and methods/attributes for logic of all three current game levels&lt;br&gt;&lt;/span&gt;&lt;ul&gt;&lt;li&gt;&lt;span style=&quot;background-color: initial;&quot;&gt;&amp;nbsp;GameLevelCity&lt;/span&gt;&lt;/li&gt;&lt;li&gt;&lt;span style=&quot;background-color: initial;&quot;&gt;GameLevelWatert&lt;/span&gt;&lt;/li&gt;&lt;li&gt;GameLevelDesert&lt;/li&gt;&lt;li&gt;&lt;span style=&quot;background-color: initial;&quot;&gt;{Player} - Attributes like fish and Player&lt;/span&gt;&lt;/li&gt;&lt;/ul&gt;" style="rounded=0;whiteSpace=wrap;html=1;fontFamily=Times New Roman;fontSize=61;fillColor=none;" parent="1" vertex="1">
                    <mxGeometry x="-1270" y="520" width="570" height="720" as="geometry"/>
                </mxCell>
                <mxCell id="6" value="" style="shape=singleArrow;direction=south;whiteSpace=wrap;html=1;fillColor=#FFFF33;arrowWidth=0.3333333333333333;arrowSize=0.52;" parent="1" vertex="1">
                    <mxGeometry x="-1620" y="1280" width="60" height="100" as="geometry"/>
                </mxCell>
                <mxCell id="7" value="GamLevelCity.js&lt;br&gt;&lt;span style=&quot;background-color: initial;&quot;&gt;&lt;font color=&quot;#cc0000&quot;&gt;&lt;b&gt;New Level&lt;/b&gt;&lt;/font&gt;&amp;nbsp;&lt;br&gt;&lt;/span&gt;New Sprite rensering to match the city theme level through importing all files like NPC, GameEnv and GameLevel.js&amp;nbsp;&lt;br&gt;Uses path plus current existing file path for sprite rendering" style="rounded=0;whiteSpace=wrap;html=1;fontFamily=Times New Roman;fontSize=61;fillColor=none;" parent="1" vertex="1">
                    <mxGeometry x="-1845" y="1431" width="570" height="720" as="geometry"/>
                </mxCell>
                <mxCell id="22" style="edgeStyle=none;html=1;exitX=1;exitY=0.25;exitDx=0;exitDy=0;" edge="1" parent="1" source="8">
                    <mxGeometry relative="1" as="geometry">
                        <mxPoint x="-760" y="1920" as="targetPoint"/>
                    </mxGeometry>
                </mxCell>
                <mxCell id="23" style="edgeStyle=none;html=1;exitX=1;exitY=0.5;exitDx=0;exitDy=0;" edge="1" parent="1" source="8">
                    <mxGeometry relative="1" as="geometry">
                        <mxPoint x="-640" y="2080" as="targetPoint"/>
                    </mxGeometry>
                </mxCell>
                <mxCell id="25" value="" style="edgeStyle=none;html=1;" edge="1" parent="1" source="8" target="24">
                    <mxGeometry relative="1" as="geometry"/>
                </mxCell>
                <mxCell id="8" value="&lt;div style=&quot;text-align: center;&quot;&gt;&lt;span style=&quot;background-color: initial; font-size: 61px;&quot;&gt;&lt;font face=&quot;Times New Roman&quot; color=&quot;#66ffff&quot;&gt;Methods/Attributes&lt;/font&gt;&lt;/span&gt;&lt;/div&gt;&lt;ul style=&quot;border-color: rgb(0, 0, 0); color: rgb(102, 255, 255); font-family: &amp;quot;Times New Roman&amp;quot;; font-size: 61px; font-style: normal; font-variant-ligatures: normal; font-variant-caps: normal; font-weight: 400; letter-spacing: normal; orphans: 2; text-align: center; text-indent: 0px; text-transform: none; widows: 2; word-spacing: 0px; -webkit-text-stroke-width: 0px; background-color: rgb(42, 37, 47); text-decoration-thickness: initial; text-decoration-style: initial; text-decoration-color: initial;&quot;&gt;&lt;li style=&quot;padding: 3px 0px; border-color: rgb(0, 0, 0);&quot;&gt;&lt;font style=&quot;border-color: rgb(0, 0, 0);&quot; color=&quot;#ffffff&quot;&gt;Class GameLevelCity - OOP Class Initialization for the new level&lt;/font&gt;&lt;/li&gt;&lt;li style=&quot;padding: 3px 0px; border-color: rgb(0, 0, 0);&quot;&gt;&lt;font style=&quot;border-color: rgb(0, 0, 0);&quot; color=&quot;#ffffff&quot;&gt;let width = GameEnv.innerWidth&lt;/font&gt;&lt;/li&gt;&lt;li style=&quot;padding: 3px 0px; border-color: rgb(0, 0, 0);&quot;&gt;&lt;font style=&quot;border-color: rgb(0, 0, 0);&quot; color=&quot;#ffffff&quot;&gt;let height = GameEnv.innerHeight&lt;/font&gt;&lt;/li&gt;&lt;li style=&quot;padding: 3px 0px; border-color: rgb(0, 0, 0);&quot;&gt;&lt;font style=&quot;border-color: rgb(0, 0, 0);&quot; color=&quot;#ffffff&quot;&gt;const image_data_map&lt;/font&gt;&lt;/li&gt;&lt;li style=&quot;padding: 3px 0px; border-color: rgb(0, 0, 0);&quot;&gt;&lt;font style=&quot;border-color: rgb(0, 0, 0);&quot; color=&quot;#ffffff&quot;&gt;const sprite_data_buisnessman&lt;/font&gt;&lt;font style=&quot;background-color: light-dark(rgb(42, 37, 47), rgb(206, 202, 210)); border-color: rgb(0, 0, 0);&quot;&gt;lass: background,&lt;/font&gt;&lt;span style=&quot;background-color: light-dark(rgb(42, 37, 47), rgb(206, 202, 210));&quot;&gt;&amp;nbsp;&lt;/span&gt;&lt;font style=&quot;background-color: light-dark(rgb(42, 37, 47), rgb(206, 202, 210)); border-color: rgb(0, 0, 0);&quot;&gt;data&lt;/font&gt;&lt;span style=&quot;background-color: light-dark(rgb(42, 37, 47), rgb(206, 202, 210));&quot;&gt;:&lt;/span&gt;&lt;span style=&quot;background-color: light-dark(rgb(42, 37, 47), rgb(206, 202, 210));&quot;&gt;&amp;nbsp;&lt;/span&gt;&lt;font style=&quot;background-color: light-dark(rgb(42, 37, 47), rgb(206, 202, 210)); border-color: rgb(0, 0, 0);&quot;&gt;image_data_jungle&lt;/font&gt;&lt;/li&gt;&lt;li style=&quot;padding: 3px 0px; border-color: rgb(0, 0, 0);&quot;&gt;&lt;font style=&quot;border-color: rgb(0, 0, 0);&quot; color=&quot;#00cccc&quot;&gt;class: player,&lt;span&gt;&amp;nbsp;&lt;/span&gt;&lt;/font&gt;&lt;font style=&quot;border-color: rgb(0, 0, 0);&quot; color=&quot;#99ccff&quot;&gt;data:&lt;span&gt;&amp;nbsp;&lt;/span&gt;&lt;/font&gt;&lt;font style=&quot;border-color: rgb(0, 0, 0);&quot; color=&quot;#ffffff&quot;&gt;sp&lt;/font&gt;&lt;/li&gt;&lt;li style=&quot;padding: 3px 0px; border-color: rgb(0, 0, 0);&quot;&gt;&lt;font style=&quot;border-color: rgb(0, 0, 0);&quot; color=&quot;#ffffff&quot;&gt;rite_data_magician&lt;/font&gt;&lt;/li&gt;&lt;li style=&quot;padding: 3px 0px; border-color: rgb(0, 0, 0);&quot;&gt;&amp;nbsp;&lt;font style=&quot;border-color: rgb(0, 0, 0); background-color: initial;&quot; color=&quot;#ffffff&quot;&gt;&amp;nbsp;&lt;/font&gt;&lt;/li&gt;&lt;/ul&gt;" style="text;whiteSpace=wrap;html=1;" parent="1" vertex="1">
                    <mxGeometry x="-1100" y="1310" width="560" height="1130" as="geometry"/>
                </mxCell>
                <mxCell id="13" style="edgeStyle=none;html=1;exitX=0.75;exitY=0.25;exitDx=0;exitDy=0;exitPerimeter=0;" parent="1" edge="1">
                    <mxGeometry relative="1" as="geometry">
                        <mxPoint x="200" y="290" as="targetPoint"/>
                        <mxPoint x="220" y="285" as="sourcePoint"/>
                    </mxGeometry>
                </mxCell>
                <mxCell id="14" style="edgeStyle=none;html=1;exitX=0;exitY=0;exitDx=40;exitDy=39;exitPerimeter=0;" parent="1" edge="1">
                    <mxGeometry relative="1" as="geometry">
                        <mxPoint x="260" y="300" as="targetPoint"/>
                        <mxPoint x="280" y="308.99999999999955" as="sourcePoint"/>
                    </mxGeometry>
                </mxCell>
                <mxCell id="17" value="" style="edgeStyle=none;html=1;" parent="1" edge="1">
                    <mxGeometry relative="1" as="geometry">
                        <mxPoint x="320" y="350" as="sourcePoint"/>
                        <mxPoint x="320" y="350" as="targetPoint"/>
                    </mxGeometry>
                </mxCell>
                <mxCell id="18" value="" style="edgeStyle=none;html=1;" parent="1" edge="1">
                    <mxGeometry relative="1" as="geometry">
                        <mxPoint x="290" y="311.4285714285711" as="sourcePoint"/>
                        <mxPoint x="230" y="302.85714285714266" as="targetPoint"/>
                    </mxGeometry>
                </mxCell>
                <mxCell id="19" value="&lt;span style=&quot;background-color: initial;&quot;&gt;&lt;font&gt;&lt;font color=&quot;#000000&quot;&gt;GameLevelMagic.js&lt;/font&gt;&lt;/font&gt;&lt;/span&gt;&lt;div&gt;&lt;span style=&quot;background-color: initial;&quot;&gt;&lt;font&gt;&lt;b style=&quot;color: light-dark(rgb(204, 0, 0), rgb(255, 163, 163));&quot;&gt;Second New Level&lt;/b&gt;&lt;/font&gt;&amp;nbsp;&lt;br&gt;&lt;/span&gt;Castle and Magic Character Sprite rendering through importing all files like NPC, GameEnv and GameLevel.js&amp;nbsp;&lt;br&gt;Uses path plus current existing file path for sprite rendering&lt;br&gt;&lt;/div&gt;" style="rounded=0;whiteSpace=wrap;html=1;fontFamily=Times New Roman;fontSize=61;fillColor=none;" parent="1" vertex="1">
                    <mxGeometry x="-2530" y="1450" width="570" height="720" as="geometry"/>
                </mxCell>
                <mxCell id="20" value="GamLevelCity.js&lt;br&gt;&lt;span style=&quot;background-color: initial;&quot;&gt;&lt;font color=&quot;#cc0000&quot;&gt;&lt;b&gt;New Level&lt;/b&gt;&lt;/font&gt;&amp;nbsp;&lt;br&gt;&lt;/span&gt;Added new functions for timer counting in real time to track game level render time, calculating when the user collides with the NPC using their width and height were also created as a new method taking in those values as parameters in the new helper methods, Used timer for alerts for messages in the level as well" style="rounded=0;whiteSpace=wrap;html=1;fontFamily=Times New Roman;fontSize=61;fillColor=none;" parent="1" vertex="1">
                    <mxGeometry x="-3260" y="1780" width="570" height="720" as="geometry"/>
                </mxCell>
                <mxCell id="21" value="&lt;span style=&quot;background-color: initial;&quot;&gt;&lt;font&gt;&lt;font color=&quot;#000000&quot;&gt;GameLevelMagic.js&lt;/font&gt;&lt;/font&gt;&lt;/span&gt;&lt;div&gt;&lt;span style=&quot;background-color: initial;&quot;&gt;&lt;font&gt;&lt;b style=&quot;color: light-dark(rgb(204, 0, 0), rgb(255, 163, 163));&quot;&gt;New Level&lt;/b&gt;&lt;/font&gt;&amp;nbsp;&lt;br&gt;&lt;/span&gt;Added method for storing and rendering the quiz with each question being mapped to one answer for the user to input, had the real-time timer value as a prameter, have a method using conditionals for restarting, with number of correct answers a parameter to use the restart method based on the correct answers&amp;nbsp;&lt;/div&gt;" style="rounded=0;whiteSpace=wrap;html=1;fontFamily=Times New Roman;fontSize=61;fillColor=none;" parent="1" vertex="1">
                    <mxGeometry x="-3360" y="470" width="570" height="720" as="geometry"/>
                </mxCell>
                <mxCell id="26" style="edgeStyle=none;html=1;" edge="1" parent="1" source="24">
                    <mxGeometry relative="1" as="geometry">
                        <mxPoint x="-860" y="2080" as="targetPoint"/>
                    </mxGeometry>
                </mxCell>
                <mxCell id="24" value="" style="rounded=1;whiteSpace=wrap;html=1;" vertex="1" parent="1">
                    <mxGeometry x="-1610" y="2655" width="120" height="60" as="geometry"/>
                </mxCell>
            </root>
        </mxGraphModel>
    </diagram>
</mxfile>